<svg xmlns="http://www.w3.org/2000/svg" viewBox="0 0 400 400">
    <!--Shadow-->
    <rect x="10" y="160" width="104" height="104" rx="26" ry="26" fill="black" stroke="black" stroke-width="20"/>
    <rect x="286" y="160" width="104" height="104" rx="26" ry="26" fill="black" stroke="black" stroke-width="20"/>
    <rect x="62" y="96" width="276" height="248" rx="26" ry="26" fill="black" stroke="black" stroke-width="20"/>
    <line x1="200" y1="96" x2="200" y2="42" stroke="black" stroke-width="20"/>
    <circle cx="200" cy="30" r="20" fill="black" stroke="black" stroke-width="14"/>

    <!-- Ears -->
    <rect x="10" y="160" width="104" height="104" rx="26" ry="26" fill="#4a90e2" stroke="#2b5797" stroke-width="8"/>
    <rect x="286" y="160" width="104" height="104" rx="26" ry="26" fill="#4a90e2" stroke="#2b5797" stroke-width="8"/>
   
    <!-- Robot Head -->
    <rect x="62" y="96" width="276" height="248" rx="26" ry="26" fill="#4a90e2" stroke="#2b5797" stroke-width="10"/>
   
    <!-- Eyes -->
    <circle cx="131" cy="190" r="39" fill="white" stroke="#2b5797" stroke-width="5"/>
    <circle cx="269" cy="190" r="39" fill="white" stroke="#2b5797" stroke-width="5"/>
    <circle cx="131" cy="190" r="18" fill="#2b5797"/>
    <circle cx="269" cy="190" r="18" fill="#2b5797"/>
   
    <!-- Mouth -->
    <rect x="118" y="254" width="164" height="26" rx="13" ry="13" fill="#2b5797"/>
   
    <!-- Antenna -->
    <line x1="200" y1="96" x2="200" y2="42" stroke="#2b5797" stroke-width="10"/>
    <circle cx="200" cy="30" r="20" fill="#e74c3c" stroke="#ed6c5f" stroke-width="5"/>
</svg>